<svg width="30" height="30" viewBox="0 0 129 129" fill="none" xmlns="http://www.w3.org/2000/svg">
<g clip-path="url(#clip0_36_47)">
<path d="M38.9061 93.7389C37.3392 93.7412 35.8262 93.167 34.6554 92.1257L2.26294 63.331L36.4542 32.9359C37.7287 31.8456 39.3801 31.2991 41.0533 31.4137C42.7265 31.5284 44.2879 32.2951 45.4018 33.549C46.5156 34.8029 47.0928 36.4438 47.0094 38.1189C46.926 39.7939 46.1885 41.3694 44.9556 42.5064L21.5319 63.331L43.1568 82.5488C44.1283 83.4108 44.8146 84.548 45.1246 85.8093C45.4346 87.0706 45.3537 88.3963 44.8924 89.6105C44.4312 90.8247 43.6116 91.8699 42.5424 92.6072C41.4731 93.3446 40.2049 93.7393 38.9061 93.7389ZM96.169 93.7261L130.36 63.331L97.9678 34.5363C96.6987 33.409 95.0337 32.8319 93.3391 32.9322C91.6446 33.0324 90.0592 33.8017 88.9319 35.0709C87.8045 36.34 87.2275 38.005 87.3277 39.6995C87.428 41.3941 88.1973 42.9794 89.4664 44.1068L111.091 63.331L87.6675 84.1492C86.3976 85.2766 85.6274 86.8623 85.5266 88.5574C85.4258 90.2526 86.0024 91.9184 87.1298 93.1884C88.2572 94.4583 89.8428 95.2285 91.538 95.3293C93.2332 95.4302 94.899 94.8535 96.169 93.7261ZM66.222 102.797L79.0253 25.9773C79.189 25.1377 79.1828 24.2739 79.0071 23.4367C78.8313 22.5996 78.4896 21.8062 78.0021 21.1034C77.5146 20.4005 76.8911 19.8025 76.1686 19.3447C75.4461 18.8868 74.6392 18.5784 73.7954 18.4376C72.9517 18.2969 72.0884 18.3266 71.2564 18.5251C70.4243 18.7236 69.6405 19.0869 68.9512 19.5934C68.262 20.0999 67.6812 20.7394 67.2432 21.4741C66.8052 22.2088 66.5189 23.0239 66.4012 23.8711L53.5979 100.691C53.4342 101.531 53.4404 102.395 53.6161 103.232C53.7918 104.069 54.1336 104.862 54.6211 105.565C55.1086 106.268 55.732 106.866 56.4546 107.324C57.1771 107.782 57.984 108.09 58.8277 108.231C59.6714 108.372 60.5348 108.342 61.3668 108.143C62.1988 107.945 62.9827 107.582 63.6719 107.075C64.3612 106.569 64.942 105.929 65.38 105.194C65.818 104.46 66.1043 103.645 66.222 102.797Z" fill="white"/>
</g>
<defs>
<clipPath id="clip0_36_47">
<rect width="128.033" height="128.033" fill="white" transform="translate(0.756592 0.274902)"/>
</clipPath>
</defs>
</svg>
