<svg width="170" height="162" viewBox="0 0 170 162" fill="none" xmlns="http://www.w3.org/2000/svg">
<path d="M128.47 19.6495C131.929 17.9742 134.324 14.439 134.324 10.3359C134.324 7.59463 133.237 4.96566 131.302 3.02731C129.366 1.08896 126.742 0 124.005 0C121.268 0 118.643 1.08896 116.707 3.02731C114.772 4.96566 113.685 7.59463 113.685 10.3359C113.685 14.4958 116.137 18.0594 119.667 19.7063C115.584 41.8546 109.319 58.3381 86 61.8591C86 61.8591 92.2798 93.3068 121.651 93.3068C151.023 93.3068 154 62.1714 154 62.1714C130.171 63.3924 128.158 33.3928 128.47 19.6495V19.6495Z" fill="#F19534"/>
<path d="M44.146 19.6495C40.7373 17.9742 38.3764 14.439 38.3764 10.3359C38.3764 7.59463 39.4479 4.96566 41.3551 3.02731C43.2624 1.08896 45.8492 0 48.5465 0C51.2438 0 53.8306 1.08896 55.7379 3.02731C57.6451 4.96566 58.7166 7.59463 58.7166 10.3359C58.7166 14.4958 56.2998 18.0594 52.8213 19.7063C56.8447 41.8546 63.0194 58.3381 86 61.8591C86 61.8591 79.8113 93.3068 50.8655 93.3068C21.9197 93.3068 19 62.1856 19 62.1856C42.4696 63.3924 44.4533 33.3928 44.146 19.6495V19.6495Z" fill="#F19534"/>
<path d="M121 93.2907C121.127 93.2907 121.254 93.3068 121.38 93.3068C129.423 93.3068 135.465 90.6109 140 86.7205L121 93.2907Z" fill="#FFCA28"/>
<path d="M162.883 12.1352C158.213 11.4987 153.753 15.9824 152.94 22.1209C152.435 25.9539 153.459 29.5323 155.436 31.8378L152.07 45.911C152.07 45.911 146.924 79.1635 120.923 85.7263C100.139 90.9737 92.6076 52.6011 90.7845 40.7485C94.7393 38.7683 97.474 34.6666 97.474 29.9C97.474 23.2099 92.1027 17.7928 85.4693 17.7928C78.8358 17.7928 73.4645 23.2099 73.4645 29.9C73.4645 34.6948 76.2413 38.839 80.2663 40.7909C78.8218 52.488 72.4547 89.5876 50.0159 85.7122C27.2405 81.766 17.2973 43.0822 14.9973 32.5591C17.7321 30.2961 19.2607 26.3075 18.6998 22.0218C17.8863 15.8692 13.062 11.4563 7.92912 12.1494C2.79624 12.8424 -0.695802 18.3868 0.117605 24.5253C0.706624 28.9948 3.42733 32.545 6.83523 33.8886L24.6741 145.668C24.6741 145.668 40.241 158.073 85.4693 158.073C130.698 158.073 146.264 145.668 146.264 145.668L164.145 33.5916C167.034 32.0641 169.306 28.6271 169.867 24.4122C170.695 18.2596 167.567 12.7717 162.883 12.1352V12.1352Z" fill="#FFCA28"/>
<path d="M86 129.532C93.732 129.532 100 122.16 100 113.066C100 103.972 93.732 96.6 86 96.6C78.268 96.6 72 103.972 72 113.066C72 122.16 78.268 129.532 86 129.532Z" fill="#E66060"/>
<path d="M86.4031 101.159C86.9407 101.752 87.4217 102.838 86.4031 104.954C85.3845 107.07 79.8954 109.934 78.891 110.512C77.8865 111.105 77.2216 110.837 76.9104 110.597C75.4249 109.412 75.9908 106.732 76.9528 105.095C79.0183 101.554 83.3898 97.9008 86.4031 101.159V101.159Z" fill="white"/>
<path d="M85.2138 119.616C83.6876 120.33 78.6786 122.501 80.3297 125.077C81.301 126.601 83.3129 127.248 85.1583 127.329C87.0038 127.41 88.8214 126.843 90.4587 126.021C98.2289 122.11 98.8533 111.835 97.3408 111.053C95.7868 110.244 94.7323 112.334 93.9275 113.224C91.4805 115.887 88.5202 118.059 85.2138 119.616V119.616Z" fill="white" fill-opacity="0.38"/>
<path d="M161.619 99.7871C163.852 87.5919 155.548 84.5395 155.548 84.5395C155.548 84.5395 150.194 83.5786 147.674 97.3C145.154 111.007 150.509 111.968 150.509 111.968C150.509 111.968 159.371 111.982 161.619 99.7871V99.7871Z" fill="#E66060"/>
<path d="M158.285 88.783C160.254 91.5366 157.923 95.6064 154.144 98.3146C153.029 99.1165 151.552 98.8139 151.334 98.1482C150.726 96.2419 150.987 94.0783 151.798 92.2477C154.201 86.7556 157.286 87.3911 158.285 88.783V88.783Z" fill="white"/>
<path d="M9.38529 100.885C7.13818 88.7037 15.4539 85.6372 15.4539 85.6372C15.4539 85.6372 20.8069 84.6763 23.326 98.3977C25.845 112.105 20.492 113.066 20.492 113.066C20.492 113.066 11.6181 113.08 9.38529 100.885V100.885Z" fill="#E66060"/>
<path d="M17.9107 89.3327C19.7487 90.6742 18.9943 92.4317 17.6089 93.6525C16.0315 95.0611 14.8245 96.6039 13.4803 98.2003C13.2746 98.4418 13.0414 98.7101 12.7122 98.7772C12.0812 98.9114 11.5737 98.2808 11.368 97.6771C10.7782 95.9868 10.8879 94.0013 11.7658 92.4451C14.2621 88.0045 17.1974 88.8094 17.9107 89.3327V89.3327Z" fill="white"/>
<path d="M135.82 111.784C134.894 117.492 130.663 121.458 126.352 120.644C122.041 119.831 121.45 114.965 122.376 109.257C123.303 103.549 125.385 99.1775 129.683 99.9908C133.994 100.804 136.747 106.091 135.82 111.784V111.784Z" fill="white" fill-opacity="0.7"/>
<path d="M38.1875 111.784C39.1807 117.492 43.7151 121.458 48.3358 120.644C52.9565 119.831 53.5898 114.965 52.5966 109.257C51.6034 103.549 49.3722 99.1775 44.7659 99.9908C40.1596 100.804 37.2087 106.091 38.1875 111.784Z" fill="white" fill-opacity="0.7"/>
<path d="M45.13 108.444C44.0385 109.637 41.3771 112.036 40.4352 110.204C39.1494 107.703 40.9286 103.922 42.962 102.671C44.9954 101.42 46.655 102.409 46.9391 103.529C47.283 104.954 46.1018 107.368 45.13 108.444V108.444Z" fill="#FFA8A4" fill-opacity="0.1"/>
<path d="M124.92 111.934C123.508 111.714 123.351 106.711 127.145 102.779C128.956 100.901 131.552 103.131 130.896 106.139C130.269 109 127.501 112.345 124.92 111.934V111.934Z" fill="#FFA8A4" fill-opacity="0.1"/>
<path d="M148.947 127.336C140.518 131.62 121.184 143.03 85.4859 143.03C49.7876 143.03 30.4539 131.62 22.0253 127.336C22.0253 127.336 19 128.979 19 130.692V143.844C19 145.601 19.9146 147.214 21.4062 148.114C27.9914 152.055 48.0568 161.366 85.5 161.366C122.943 161.366 143.009 152.055 149.594 148.114C150.326 147.676 150.933 147.052 151.355 146.303C151.777 145.554 151.999 144.707 152 143.844V130.692C151.972 128.979 148.947 127.336 148.947 127.336V127.336Z" fill="#FFCA28"/>
<path d="M51.1022 145.117C55.0369 145.886 56.2313 146.221 55.9643 148.402C55.4163 152.693 46.4649 151.673 41.1671 150.289C30.2203 147.423 28 144.404 28 141.706C28 139.232 29.9111 138.939 32.8621 139.973C36.3893 141.217 41.8416 143.314 51.1022 145.117V145.117Z" fill="#FFF59D"/>
<path d="M149 130.63C149 130.63 125.67 143.802 85.5 143.802C45.3303 143.802 22 130.63 22 130.63" stroke="#F19534" stroke-width="14.8788" stroke-miterlimit="10" stroke-linecap="round"/>
<path d="M33.4552 59.024C41.0113 53.5745 45.0735 43.8085 45.4285 28.2631C45.4569 26.8577 45.8546 26.4419 46.6074 26.3558C47.8147 26.2268 48.0135 27.331 47.9993 28.1197C47.6584 44.8984 45.5422 55.3815 37.1622 61.2899C36.7504 61.5767 33.8103 63.3836 32.5604 62.136C31.0691 60.6732 32.9723 59.3682 33.4552 59.024V59.024Z" fill="#FFCA28"/>
<path d="M105.461 55.44C112.133 49.3303 116.558 42.5052 119.471 26.9663C119.734 25.5927 120.123 25.2206 120.844 25.2492C122.023 25.2779 122.079 26.4082 121.954 27.1809C119.485 43.75 117.141 48.4718 108.915 57.8725C107.986 58.9313 105.725 59.8899 104.449 58.7882C103.297 57.8009 104.629 56.2127 105.461 55.44V55.44Z" fill="#FFCA28"/>
<path d="M39.6191 89.4198C23.4466 81.9897 18.6868 62.6039 16.1537 54.1869C15.8197 53.0731 15.9867 52.0157 17.0862 51.6774C18.1857 51.339 18.8399 52.058 19.1878 53.1718C21.0249 59.2766 28.1648 79.6634 42.9037 85.458C43.9753 85.881 45.6454 86.9102 44.7408 88.6725C44.1423 89.8145 42.2217 90.6182 39.6191 89.4198V89.4198Z" fill="#FFF59D"/>
<path d="M131.566 89.4198C148.297 81.9897 153.221 62.6039 155.841 54.1869C156.187 53.0731 156.014 52.0157 154.876 51.6774C153.739 51.339 153.062 52.058 152.702 53.1718C150.802 59.2766 143.416 79.6634 128.169 85.458C127.06 85.881 125.332 86.9102 126.268 88.6725C126.887 89.8145 128.874 90.6182 131.566 89.4198Z" fill="#FFF59D"/>
</svg>
