<svg width="30" height="30" viewBox="0 0 126 126" fill="none" xmlns="http://www.w3.org/2000/svg">
<path d="M47.4663 79.1118L31.8127 94.7655C30.0705 96.5073 27.8509 97.6934 25.4347 98.1739C23.0184 98.6545 20.5139 98.4078 18.2379 97.465C15.9618 96.5223 14.0163 94.9259 12.6475 92.8777C11.2786 90.8294 10.5478 88.4212 10.5474 85.9577V79.1118L17.7044 43.3321C18.6603 38.5496 21.2436 34.2461 25.0149 31.1537C28.7862 28.0612 33.5125 26.371 38.3895 26.3705H88.1879C93.065 26.371 97.7912 28.0612 101.562 31.1537C105.334 34.2461 107.917 38.5496 108.873 43.3321L116.03 79.1118V85.9524C116.03 88.416 115.299 90.8241 113.93 92.8724C112.561 94.9206 110.616 96.517 108.34 97.4598C106.063 98.4025 103.559 98.6492 101.143 98.1687C98.7265 97.6882 96.507 96.502 94.7647 94.7602L79.1111 79.1118H47.4663Z" stroke="white" stroke-width="10.5483" stroke-linecap="round" stroke-linejoin="round"/>
<path d="M47.4668 26.3705L52.7409 36.9188H73.8375L79.1116 26.3705" stroke="white" stroke-width="10.5483" stroke-linecap="round" stroke-linejoin="round"/>
</svg>
