<svg width="30" height="30" viewBox="0 0 90 99" fill="none" xmlns="http://www.w3.org/2000/svg">
<path d="M89.1139 24.3343C89.0321 23.5069 88.7417 22.7139 88.2699 22.0294C87.798 21.3448 87.1602 20.7912 86.4161 20.4204L47.0312 0.727971C46.3473 0.385714 45.593 0.20752 44.8281 0.20752C44.0633 0.20752 43.309 0.385714 42.625 0.727971L3.24019 20.4204C2.49814 20.7934 1.86227 21.3476 1.39152 22.0318C0.920761 22.716 0.630364 23.508 0.547246 24.3343C0.493092 24.861 -4.18386 77.3414 42.8318 98.2498C43.46 98.5333 44.1414 98.68 44.8306 98.68C45.5198 98.68 46.2012 98.5333 46.8294 98.2498C93.8451 77.3414 89.1681 24.866 89.1139 24.3343ZM44.8306 88.3199V49.4421H12.8796C10.9681 42.4431 10.0662 35.2069 10.2015 27.9528L44.8306 10.6382V49.4421H76.6339C72.8972 62.9314 64.3359 78.8774 44.8306 88.3199Z" fill="white"/>
</svg>
